<mxfile host="app.diagrams.net" modified="2022-05-08T09:54:24.147Z" agent="5.0 (Windows NT 10.0; Win64; x64) AppleWebKit/537.36 (KHTML, like Gecko) Chrome/100.0.4896.127 Safari/537.36" etag="kq77w0AUxp-Tn20t2oXZ" version="17.5.0" type="github" pages="2">
  <diagram id="hKtjUMWqYmaZytrloHC0" name="Page-1">
    <mxGraphModel dx="1609" dy="1605" grid="1" gridSize="10" guides="1" tooltips="1" connect="1" arrows="1" fold="1" page="1" pageScale="1" pageWidth="827" pageHeight="1169" math="0" shadow="0">
      <root>
        <mxCell id="0" />
        <mxCell id="1" parent="0" />
        <mxCell id="lfIt66fBGC96BSfinq6W-38" value="" style="rounded=0;whiteSpace=wrap;html=1;fontFamily=Helvetica;fontSize=12;fontColor=#1A1A1A;dashed=1;fillColor=none;" parent="1" vertex="1">
          <mxGeometry x="-70" y="390" width="185" height="145" as="geometry" />
        </mxCell>
        <mxCell id="lfIt66fBGC96BSfinq6W-47" value="" style="rounded=0;whiteSpace=wrap;html=1;fontFamily=Helvetica;fontSize=12;fontColor=#1A1A1A;fillColor=none;dashed=1;" parent="1" vertex="1">
          <mxGeometry x="95" y="620" width="560" height="93.5" as="geometry" />
        </mxCell>
        <mxCell id="Rig4kMZpJOM9v_A4sQsr-1" value="" style="rounded=0;whiteSpace=wrap;html=1;dashed=1;fillColor=none;" parent="1" vertex="1">
          <mxGeometry x="260" y="180" width="230" height="180" as="geometry" />
        </mxCell>
        <mxCell id="lfIt66fBGC96BSfinq6W-7" style="edgeStyle=orthogonalEdgeStyle;rounded=0;orthogonalLoop=1;jettySize=auto;html=1;exitX=0.5;exitY=1;exitDx=0;exitDy=0;entryX=0.5;entryY=0;entryDx=0;entryDy=0;entryPerimeter=0;" parent="1" source="lfIt66fBGC96BSfinq6W-1" target="lfIt66fBGC96BSfinq6W-2" edge="1">
          <mxGeometry relative="1" as="geometry" />
        </mxCell>
        <mxCell id="lfIt66fBGC96BSfinq6W-1" value="Dataflow Http Server" style="rounded=1;whiteSpace=wrap;html=1;" parent="1" vertex="1">
          <mxGeometry x="280" y="210" width="190" height="20" as="geometry" />
        </mxCell>
        <mxCell id="lfIt66fBGC96BSfinq6W-8" style="edgeStyle=orthogonalEdgeStyle;rounded=0;orthogonalLoop=1;jettySize=auto;html=1;exitX=0.5;exitY=1;exitDx=0;exitDy=0;exitPerimeter=0;entryX=0.5;entryY=0;entryDx=0;entryDy=0;" parent="1" source="lfIt66fBGC96BSfinq6W-2" target="lfIt66fBGC96BSfinq6W-3" edge="1">
          <mxGeometry relative="1" as="geometry">
            <Array as="points">
              <mxPoint x="375" y="300" />
              <mxPoint x="325" y="300" />
            </Array>
          </mxGeometry>
        </mxCell>
        <mxCell id="lfIt66fBGC96BSfinq6W-9" style="edgeStyle=orthogonalEdgeStyle;rounded=0;orthogonalLoop=1;jettySize=auto;html=1;exitX=0.5;exitY=1;exitDx=0;exitDy=0;exitPerimeter=0;entryX=0.5;entryY=0;entryDx=0;entryDy=0;" parent="1" source="lfIt66fBGC96BSfinq6W-2" target="lfIt66fBGC96BSfinq6W-4" edge="1">
          <mxGeometry relative="1" as="geometry">
            <Array as="points">
              <mxPoint x="375" y="300" />
              <mxPoint x="435" y="300" />
            </Array>
          </mxGeometry>
        </mxCell>
        <mxCell id="lfIt66fBGC96BSfinq6W-2" value="文件队列+内存" style="shape=cylinder3;whiteSpace=wrap;html=1;boundedLbl=1;backgroundOutline=1;size=7;" parent="1" vertex="1">
          <mxGeometry x="315" y="250" width="120" height="40" as="geometry" />
        </mxCell>
        <mxCell id="lfIt66fBGC96BSfinq6W-14" style="edgeStyle=orthogonalEdgeStyle;rounded=0;orthogonalLoop=1;jettySize=auto;html=1;exitX=0;exitY=0.5;exitDx=0;exitDy=0;fontFamily=Helvetica;fontSize=12;fontColor=#1A1A1A;" parent="1" source="lfIt66fBGC96BSfinq6W-3" target="lfIt66fBGC96BSfinq6W-11" edge="1">
          <mxGeometry relative="1" as="geometry" />
        </mxCell>
        <mxCell id="lfIt66fBGC96BSfinq6W-37" style="edgeStyle=orthogonalEdgeStyle;rounded=0;orthogonalLoop=1;jettySize=auto;html=1;entryX=0.5;entryY=0;entryDx=0;entryDy=0;entryPerimeter=0;fontFamily=Helvetica;fontSize=12;fontColor=#1A1A1A;exitX=0.5;exitY=1;exitDx=0;exitDy=0;" parent="1" source="lfIt66fBGC96BSfinq6W-3" target="lfIt66fBGC96BSfinq6W-5" edge="1">
          <mxGeometry relative="1" as="geometry" />
        </mxCell>
        <mxCell id="lfIt66fBGC96BSfinq6W-3" value="Trace Sink" style="rounded=1;whiteSpace=wrap;html=1;" parent="1" vertex="1">
          <mxGeometry x="280" y="310" width="90" height="30" as="geometry" />
        </mxCell>
        <mxCell id="lfIt66fBGC96BSfinq6W-18" style="edgeStyle=orthogonalEdgeStyle;rounded=0;orthogonalLoop=1;jettySize=auto;html=1;exitX=1;exitY=0.5;exitDx=0;exitDy=0;entryX=0;entryY=0.5;entryDx=0;entryDy=0;entryPerimeter=0;fontFamily=Helvetica;fontSize=12;fontColor=#1A1A1A;" parent="1" source="lfIt66fBGC96BSfinq6W-4" target="lfIt66fBGC96BSfinq6W-15" edge="1">
          <mxGeometry relative="1" as="geometry" />
        </mxCell>
        <mxCell id="lfIt66fBGC96BSfinq6W-4" value="Metrics Sink" style="rounded=1;whiteSpace=wrap;html=1;" parent="1" vertex="1">
          <mxGeometry x="390" y="310" width="90" height="30" as="geometry" />
        </mxCell>
        <mxCell id="lfIt66fBGC96BSfinq6W-5" value="Daks" style="shape=cylinder3;whiteSpace=wrap;html=1;boundedLbl=1;backgroundOutline=1;size=9;" parent="1" vertex="1">
          <mxGeometry x="385" y="651" width="70" height="50" as="geometry" />
        </mxCell>
        <mxCell id="lfIt66fBGC96BSfinq6W-6" value="&lt;a href=&quot;https://www.elastic.co/cn/elasticsearch/&quot; target=&quot;_blank&quot; style=&quot;outline: 0px ; text-align: left ; background-color: rgb(255 , 255 , 255)&quot;&gt;&lt;h3 class=&quot;LC20lb MBeuO DKV0Md&quot; style=&quot;font-weight: normal ; margin: 0px 0px 3px ; padding: 10px 0px 0px ; line-height: 1.3 ; display: inline-block&quot;&gt;&lt;font style=&quot;font-size: 12px&quot; color=&quot;#1a1a1a&quot;&gt;Elasticsearch&lt;/font&gt;&lt;/h3&gt;&lt;/a&gt;" style="shape=cylinder3;whiteSpace=wrap;html=1;boundedLbl=1;backgroundOutline=1;size=9;" parent="1" vertex="1">
          <mxGeometry x="256" y="651" width="90" height="50" as="geometry" />
        </mxCell>
        <mxCell id="lfIt66fBGC96BSfinq6W-12" style="edgeStyle=orthogonalEdgeStyle;rounded=0;orthogonalLoop=1;jettySize=auto;html=1;entryX=0.5;entryY=0;entryDx=0;entryDy=0;entryPerimeter=0;fontFamily=Helvetica;fontSize=12;fontColor=#1A1A1A;" parent="1" source="lfIt66fBGC96BSfinq6W-11" target="lfIt66fBGC96BSfinq6W-6" edge="1">
          <mxGeometry relative="1" as="geometry">
            <Array as="points">
              <mxPoint x="205" y="580" />
            </Array>
          </mxGeometry>
        </mxCell>
        <mxCell id="lfIt66fBGC96BSfinq6W-13" value="是" style="edgeLabel;html=1;align=center;verticalAlign=middle;resizable=0;points=[];fontSize=12;fontFamily=Helvetica;fontColor=#1A1A1A;" parent="lfIt66fBGC96BSfinq6W-12" vertex="1" connectable="0">
          <mxGeometry x="-0.2333" y="-2" relative="1" as="geometry">
            <mxPoint x="2" y="-72" as="offset" />
          </mxGeometry>
        </mxCell>
        <mxCell id="lfIt66fBGC96BSfinq6W-39" style="edgeStyle=orthogonalEdgeStyle;rounded=0;orthogonalLoop=1;jettySize=auto;html=1;entryX=1;entryY=0.5;entryDx=0;entryDy=0;fontFamily=Helvetica;fontSize=12;fontColor=#1A1A1A;" parent="1" target="lfIt66fBGC96BSfinq6W-38" edge="1">
          <mxGeometry relative="1" as="geometry">
            <mxPoint x="205" y="463" as="sourcePoint" />
          </mxGeometry>
        </mxCell>
        <mxCell id="lfIt66fBGC96BSfinq6W-11" value="是否服务&lt;br&gt;入口span" style="shape=parallelogram;perimeter=parallelogramPerimeter;whiteSpace=wrap;html=1;fixedSize=1;fontFamily=Helvetica;fontSize=12;fontColor=#1A1A1A;" parent="1" vertex="1">
          <mxGeometry x="160" y="371" width="90" height="30" as="geometry" />
        </mxCell>
        <mxCell id="lfIt66fBGC96BSfinq6W-15" value="&lt;font color=&quot;#1a1a1a&quot;&gt;Rocket MQ&lt;/font&gt;" style="shape=cylinder3;whiteSpace=wrap;html=1;boundedLbl=1;backgroundOutline=1;size=9;" parent="1" vertex="1">
          <mxGeometry x="548" y="300" width="90" height="50" as="geometry" />
        </mxCell>
        <mxCell id="lfIt66fBGC96BSfinq6W-29" style="edgeStyle=orthogonalEdgeStyle;rounded=0;orthogonalLoop=1;jettySize=auto;html=1;fontFamily=Helvetica;fontSize=12;fontColor=#1A1A1A;" parent="1" source="lfIt66fBGC96BSfinq6W-26" target="lfIt66fBGC96BSfinq6W-27" edge="1">
          <mxGeometry relative="1" as="geometry" />
        </mxCell>
        <mxCell id="lfIt66fBGC96BSfinq6W-16" value="" style="rounded=0;whiteSpace=wrap;html=1;fontFamily=Helvetica;fontSize=12;fontColor=#1A1A1A;dashed=1;fillColor=none;" parent="1" vertex="1">
          <mxGeometry x="502" y="380" width="185" height="157" as="geometry" />
        </mxCell>
        <mxCell id="lfIt66fBGC96BSfinq6W-17" value="TraceCollector" style="text;strokeColor=none;fillColor=none;align=left;verticalAlign=middle;spacingLeft=4;spacingRight=4;overflow=hidden;points=[[0,0.5],[1,0.5]];portConstraint=eastwest;rotatable=0;fontFamily=Helvetica;fontSize=12;fontColor=#1A1A1A;" parent="1" vertex="1">
          <mxGeometry x="170" y="200" width="90" height="30" as="geometry" />
        </mxCell>
        <mxCell id="lfIt66fBGC96BSfinq6W-19" value="MetricsStatisticsComsumer" style="text;strokeColor=none;fillColor=none;align=left;verticalAlign=middle;spacingLeft=4;spacingRight=4;overflow=hidden;points=[[0,0.5],[1,0.5]];portConstraint=eastwest;rotatable=0;fontFamily=Helvetica;fontSize=12;fontColor=#1A1A1A;" parent="1" vertex="1">
          <mxGeometry x="687" y="387" width="160" height="30" as="geometry" />
        </mxCell>
        <mxCell id="lfIt66fBGC96BSfinq6W-21" value="告警服务&lt;br&gt;(接口告警、三方调用告警)" style="rounded=1;whiteSpace=wrap;html=1;fontFamily=Helvetica;fontSize=12;fontColor=#1A1A1A;" parent="1" vertex="1">
          <mxGeometry x="740" y="493" width="145" height="40" as="geometry" />
        </mxCell>
        <mxCell id="lfIt66fBGC96BSfinq6W-68" style="edgeStyle=orthogonalEdgeStyle;rounded=0;orthogonalLoop=1;jettySize=auto;html=1;exitX=0.5;exitY=1;exitDx=0;exitDy=0;entryX=0.5;entryY=0;entryDx=0;entryDy=0;entryPerimeter=0;fontFamily=Helvetica;fontSize=12;fontColor=#1A1A1A;" parent="1" source="lfIt66fBGC96BSfinq6W-22" target="lfIt66fBGC96BSfinq6W-25" edge="1">
          <mxGeometry relative="1" as="geometry" />
        </mxCell>
        <mxCell id="lfIt66fBGC96BSfinq6W-22" value="消费MQ 数据" style="rounded=1;whiteSpace=wrap;html=1;fontFamily=Helvetica;fontSize=12;fontColor=#1A1A1A;" parent="1" vertex="1">
          <mxGeometry x="517" y="398" width="150" height="30" as="geometry" />
        </mxCell>
        <mxCell id="lfIt66fBGC96BSfinq6W-69" style="edgeStyle=orthogonalEdgeStyle;rounded=0;orthogonalLoop=1;jettySize=auto;html=1;exitX=0.5;exitY=1;exitDx=0;exitDy=0;exitPerimeter=0;entryX=0.5;entryY=0;entryDx=0;entryDy=0;fontFamily=Helvetica;fontSize=12;fontColor=#1A1A1A;" parent="1" source="lfIt66fBGC96BSfinq6W-25" target="lfIt66fBGC96BSfinq6W-26" edge="1">
          <mxGeometry relative="1" as="geometry" />
        </mxCell>
        <mxCell id="lfIt66fBGC96BSfinq6W-25" value="内存聚合Metrics" style="shape=cylinder3;whiteSpace=wrap;html=1;boundedLbl=1;backgroundOutline=1;size=7;" parent="1" vertex="1">
          <mxGeometry x="517" y="442" width="150" height="40" as="geometry" />
        </mxCell>
        <mxCell id="lfIt66fBGC96BSfinq6W-34" style="edgeStyle=orthogonalEdgeStyle;rounded=0;orthogonalLoop=1;jettySize=auto;html=1;entryX=0;entryY=0.5;entryDx=0;entryDy=0;fontFamily=Helvetica;fontSize=12;fontColor=#1A1A1A;" parent="1" source="lfIt66fBGC96BSfinq6W-26" target="lfIt66fBGC96BSfinq6W-21" edge="1">
          <mxGeometry relative="1" as="geometry" />
        </mxCell>
        <mxCell id="lfIt66fBGC96BSfinq6W-26" value="定时消费" style="rounded=1;whiteSpace=wrap;html=1;fontFamily=Helvetica;fontSize=12;fontColor=#1A1A1A;" parent="1" vertex="1">
          <mxGeometry x="519.5" y="498" width="150" height="30" as="geometry" />
        </mxCell>
        <mxCell id="lfIt66fBGC96BSfinq6W-27" value="&lt;font color=&quot;#1a1a1a&quot;&gt;TSHouse&lt;/font&gt;" style="shape=cylinder3;whiteSpace=wrap;html=1;boundedLbl=1;backgroundOutline=1;size=9;fillColor=default;" parent="1" vertex="1">
          <mxGeometry x="502" y="651" width="90" height="50" as="geometry" />
        </mxCell>
        <mxCell id="lfIt66fBGC96BSfinq6W-46" style="edgeStyle=orthogonalEdgeStyle;rounded=0;orthogonalLoop=1;jettySize=auto;html=1;entryX=0.5;entryY=0;entryDx=0;entryDy=0;entryPerimeter=0;fontFamily=Helvetica;fontSize=12;fontColor=#1A1A1A;exitX=0.5;exitY=1;exitDx=0;exitDy=0;" parent="1" source="lfIt66fBGC96BSfinq6W-38" target="lfIt66fBGC96BSfinq6W-45" edge="1">
          <mxGeometry relative="1" as="geometry">
            <mxPoint x="30" y="550" as="sourcePoint" />
          </mxGeometry>
        </mxCell>
        <mxCell id="lfIt66fBGC96BSfinq6W-40" value="TraceTopology" style="text;strokeColor=none;fillColor=none;align=left;verticalAlign=middle;spacingLeft=4;spacingRight=4;overflow=hidden;points=[[0,0.5],[1,0.5]];portConstraint=eastwest;rotatable=0;fontFamily=Helvetica;fontSize=12;fontColor=#1A1A1A;" parent="1" vertex="1">
          <mxGeometry x="-173" y="390" width="90" height="30" as="geometry" />
        </mxCell>
        <mxCell id="lfIt66fBGC96BSfinq6W-44" style="edgeStyle=orthogonalEdgeStyle;rounded=0;orthogonalLoop=1;jettySize=auto;html=1;exitX=0.5;exitY=1;exitDx=0;exitDy=0;fontFamily=Helvetica;fontSize=12;fontColor=#1A1A1A;" parent="1" source="lfIt66fBGC96BSfinq6W-42" target="lfIt66fBGC96BSfinq6W-43" edge="1">
          <mxGeometry relative="1" as="geometry" />
        </mxCell>
        <mxCell id="lfIt66fBGC96BSfinq6W-42" value="构建链路" style="rounded=1;whiteSpace=wrap;html=1;fontFamily=Helvetica;fontSize=12;fontColor=#1A1A1A;fillColor=default;" parent="1" vertex="1">
          <mxGeometry x="-50" y="402" width="150" height="30" as="geometry" />
        </mxCell>
        <mxCell id="lfIt66fBGC96BSfinq6W-43" value="生成服务间edge&lt;span style=&quot;color: rgba(0 , 0 , 0 , 0) ; font-family: monospace ; font-size: 0px&quot;&gt;%3CmxGraphModel%3E%3Croot%3E%3CmxCell%20id%3D%220%22%2F%3E%3CmxCell%20id%3D%221%22%20parent%3D%220%22%2F%3E%3CmxCell%20id%3D%222%22%20value%3D%22TraceCollector%22%20style%3D%22text%3BstrokeColor%3Dnone%3BfillColor%3Dnone%3Balign%3Dleft%3BverticalAlign%3Dmiddle%3BspacingLeft%3D4%3BspacingRight%3D4%3Boverflow%3Dhidden%3Bpoints%3D%5B%5B0%2C0.5%5D%2C%5B1%2C0.5%5D%5D%3BportConstraint%3Deastwest%3Brotatable%3D0%3BfontFamily%3DHelvetica%3BfontSize%3D12%3BfontColor%3D%231A1A1A%3B%22%20vertex%3D%221%22%20parent%3D%221%22%3E%3CmxGeometry%20x%3D%22170%22%20y%3D%22200%22%20width%3D%2290%22%20height%3D%2230%22%20as%3D%22geometry%22%2F%3E%3C%2FmxCell%3E%3C%2Froot%3E%3C%2FmxGraphModel%3E&lt;/span&gt;" style="rounded=1;whiteSpace=wrap;html=1;fontFamily=Helvetica;fontSize=12;fontColor=#1A1A1A;fillColor=default;" parent="1" vertex="1">
          <mxGeometry x="-50" y="476" width="150" height="34" as="geometry" />
        </mxCell>
        <mxCell id="lfIt66fBGC96BSfinq6W-45" value="&lt;font color=&quot;#1a1a1a&quot;&gt;SQlite&lt;/font&gt;" style="shape=cylinder3;whiteSpace=wrap;html=1;boundedLbl=1;backgroundOutline=1;size=9;" parent="1" vertex="1">
          <mxGeometry x="137" y="651" width="90" height="50" as="geometry" />
        </mxCell>
        <mxCell id="lfIt66fBGC96BSfinq6W-48" value="存储层" style="text;strokeColor=none;fillColor=none;align=left;verticalAlign=middle;spacingLeft=4;spacingRight=4;overflow=hidden;points=[[0,0.5],[1,0.5]];portConstraint=eastwest;rotatable=0;fontFamily=Helvetica;fontSize=12;fontColor=#1A1A1A;" parent="1" vertex="1">
          <mxGeometry x="35" y="661" width="90" height="30" as="geometry" />
        </mxCell>
        <mxCell id="lfIt66fBGC96BSfinq6W-51" style="edgeStyle=orthogonalEdgeStyle;rounded=0;orthogonalLoop=1;jettySize=auto;html=1;entryX=1;entryY=0.5;entryDx=0;entryDy=0;fontFamily=Helvetica;fontSize=12;fontColor=#1A1A1A;" parent="1" source="lfIt66fBGC96BSfinq6W-50" target="lfIt66fBGC96BSfinq6W-47" edge="1">
          <mxGeometry relative="1" as="geometry" />
        </mxCell>
        <mxCell id="lfIt66fBGC96BSfinq6W-53" style="edgeStyle=orthogonalEdgeStyle;rounded=0;orthogonalLoop=1;jettySize=auto;html=1;exitX=0.5;exitY=1;exitDx=0;exitDy=0;entryX=0.5;entryY=0;entryDx=0;entryDy=0;entryPerimeter=0;fontFamily=Helvetica;fontSize=12;fontColor=#1A1A1A;" parent="1" source="lfIt66fBGC96BSfinq6W-50" target="lfIt66fBGC96BSfinq6W-52" edge="1">
          <mxGeometry relative="1" as="geometry" />
        </mxCell>
        <mxCell id="lfIt66fBGC96BSfinq6W-50" value="WEB UI" style="rounded=0;whiteSpace=wrap;html=1;fontFamily=Helvetica;fontSize=12;fontColor=#1A1A1A;fillColor=default;" parent="1" vertex="1">
          <mxGeometry x="911" y="636.75" width="120" height="60" as="geometry" />
        </mxCell>
        <mxCell id="lfIt66fBGC96BSfinq6W-52" value="&lt;font color=&quot;#1a1a1a&quot;&gt;MySql&lt;br&gt;管理数据&lt;br&gt;&lt;/font&gt;" style="shape=cylinder3;whiteSpace=wrap;html=1;boundedLbl=1;backgroundOutline=1;size=9;fillColor=default;" parent="1" vertex="1">
          <mxGeometry x="926" y="780" width="90" height="50" as="geometry" />
        </mxCell>
        <mxCell id="lfIt66fBGC96BSfinq6W-32" style="edgeStyle=orthogonalEdgeStyle;rounded=0;orthogonalLoop=1;jettySize=auto;html=1;fontFamily=Helvetica;fontSize=12;fontColor=#1A1A1A;" parent="1" source="lfIt66fBGC96BSfinq6W-15" edge="1">
          <mxGeometry relative="1" as="geometry">
            <mxPoint x="592" y="380" as="targetPoint" />
          </mxGeometry>
        </mxCell>
        <mxCell id="lfIt66fBGC96BSfinq6W-55" value="" style="rounded=0;whiteSpace=wrap;html=1;fontFamily=Helvetica;fontSize=12;fontColor=#1A1A1A;fillColor=none;" parent="1" vertex="1">
          <mxGeometry x="67" y="-78" width="107" height="170" as="geometry" />
        </mxCell>
        <mxCell id="lfIt66fBGC96BSfinq6W-81" style="edgeStyle=orthogonalEdgeStyle;rounded=0;orthogonalLoop=1;jettySize=auto;html=1;exitX=0.5;exitY=1;exitDx=0;exitDy=0;entryX=0.5;entryY=0;entryDx=0;entryDy=0;fontFamily=Helvetica;fontSize=12;fontColor=#1A1A1A;" parent="1" source="lfIt66fBGC96BSfinq6W-56" target="Rig4kMZpJOM9v_A4sQsr-1" edge="1">
          <mxGeometry relative="1" as="geometry" />
        </mxCell>
        <mxCell id="lfIt66fBGC96BSfinq6W-56" value="" style="rounded=0;whiteSpace=wrap;html=1;fontFamily=Helvetica;fontSize=12;fontColor=#1A1A1A;fillColor=none;" parent="1" vertex="1">
          <mxGeometry x="235" y="-78" width="107" height="170" as="geometry" />
        </mxCell>
        <mxCell id="lfIt66fBGC96BSfinq6W-57" value="" style="rounded=0;whiteSpace=wrap;html=1;fontFamily=Helvetica;fontSize=12;fontColor=#1A1A1A;fillColor=none;" parent="1" vertex="1">
          <mxGeometry x="407" y="-78" width="107" height="170" as="geometry" />
        </mxCell>
        <mxCell id="lfIt66fBGC96BSfinq6W-84" style="edgeStyle=orthogonalEdgeStyle;rounded=0;orthogonalLoop=1;jettySize=auto;html=1;fontFamily=Helvetica;fontSize=12;fontColor=#1A1A1A;exitX=0.5;exitY=1;exitDx=0;exitDy=0;" parent="1" source="lfIt66fBGC96BSfinq6W-58" target="Rig4kMZpJOM9v_A4sQsr-1" edge="1">
          <mxGeometry relative="1" as="geometry" />
        </mxCell>
        <mxCell id="lfIt66fBGC96BSfinq6W-58" value="" style="rounded=0;whiteSpace=wrap;html=1;fontFamily=Helvetica;fontSize=12;fontColor=#1A1A1A;fillColor=none;" parent="1" vertex="1">
          <mxGeometry x="582" y="-78" width="107" height="170" as="geometry" />
        </mxCell>
        <mxCell id="lfIt66fBGC96BSfinq6W-59" value="APP" style="text;strokeColor=none;fillColor=none;align=left;verticalAlign=middle;spacingLeft=4;spacingRight=4;overflow=hidden;points=[[0,0.5],[1,0.5]];portConstraint=eastwest;rotatable=0;fontFamily=Helvetica;fontSize=12;fontColor=#1A1A1A;fontStyle=1" parent="1" vertex="1">
          <mxGeometry x="102" y="-71" width="90" height="30" as="geometry" />
        </mxCell>
        <mxCell id="lfIt66fBGC96BSfinq6W-60" value="接入层" style="text;strokeColor=none;fillColor=none;align=left;verticalAlign=middle;spacingLeft=4;spacingRight=4;overflow=hidden;points=[[0,0.5],[1,0.5]];portConstraint=eastwest;rotatable=0;fontFamily=Helvetica;fontSize=12;fontColor=#1A1A1A;fontStyle=1" parent="1" vertex="1">
          <mxGeometry x="267" y="-72" width="90" height="30" as="geometry" />
        </mxCell>
        <mxCell id="lfIt66fBGC96BSfinq6W-62" value="微服务" style="text;strokeColor=none;fillColor=none;align=left;verticalAlign=middle;spacingLeft=4;spacingRight=4;overflow=hidden;points=[[0,0.5],[1,0.5]];portConstraint=eastwest;rotatable=0;fontFamily=Helvetica;fontSize=12;fontColor=#1A1A1A;fontStyle=1" parent="1" vertex="1">
          <mxGeometry x="432" y="-72" width="90" height="30" as="geometry" />
        </mxCell>
        <mxCell id="lfIt66fBGC96BSfinq6W-63" value="中间件" style="text;strokeColor=none;fillColor=none;align=left;verticalAlign=middle;spacingLeft=4;spacingRight=4;overflow=hidden;points=[[0,0.5],[1,0.5]];portConstraint=eastwest;rotatable=0;fontFamily=Helvetica;fontSize=12;fontColor=#1A1A1A;fontStyle=1" parent="1" vertex="1">
          <mxGeometry x="612" y="-72" width="90" height="30" as="geometry" />
        </mxCell>
        <mxCell id="lfIt66fBGC96BSfinq6W-64" value="" style="shape=flexArrow;endArrow=classic;html=1;rounded=0;fontFamily=Helvetica;fontSize=12;fontColor=#1A1A1A;endWidth=8.571428571428571;endSize=11.52857142857143;" parent="1" edge="1">
          <mxGeometry width="50" height="50" relative="1" as="geometry">
            <mxPoint x="-18" y="-22" as="sourcePoint" />
            <mxPoint x="772" y="-22" as="targetPoint" />
          </mxGeometry>
        </mxCell>
        <mxCell id="lfIt66fBGC96BSfinq6W-65" value="&lt;b&gt;TraceId 贯穿整个链路&lt;/b&gt;" style="edgeLabel;html=1;align=center;verticalAlign=middle;resizable=0;points=[];fontSize=12;fontFamily=Helvetica;fontColor=#1A1A1A;" parent="lfIt66fBGC96BSfinq6W-64" vertex="1" connectable="0">
          <mxGeometry x="-0.2774" y="-1" relative="1" as="geometry">
            <mxPoint x="104" as="offset" />
          </mxGeometry>
        </mxCell>
        <mxCell id="lfIt66fBGC96BSfinq6W-70" style="edgeStyle=orthogonalEdgeStyle;rounded=0;orthogonalLoop=1;jettySize=auto;html=1;exitX=0.5;exitY=1;exitDx=0;exitDy=0;fontFamily=Helvetica;fontSize=12;fontColor=#1A1A1A;" parent="1" source="lfIt66fBGC96BSfinq6W-66" target="lfIt66fBGC96BSfinq6W-67" edge="1">
          <mxGeometry relative="1" as="geometry" />
        </mxCell>
        <mxCell id="lfIt66fBGC96BSfinq6W-66" value="Trace Span" style="rounded=1;whiteSpace=wrap;html=1;fontFamily=Helvetica;fontSize=12;fontColor=#1A1A1A;fillColor=none;" parent="1" vertex="1">
          <mxGeometry x="77" width="85" height="30" as="geometry" />
        </mxCell>
        <mxCell id="lfIt66fBGC96BSfinq6W-71" style="edgeStyle=orthogonalEdgeStyle;rounded=0;orthogonalLoop=1;jettySize=auto;html=1;exitX=0.5;exitY=1;exitDx=0;exitDy=0;entryX=0.5;entryY=0;entryDx=0;entryDy=0;fontFamily=Helvetica;fontSize=12;fontColor=#1A1A1A;" parent="1" source="lfIt66fBGC96BSfinq6W-55" target="Rig4kMZpJOM9v_A4sQsr-1" edge="1">
          <mxGeometry relative="1" as="geometry">
            <Array as="points">
              <mxPoint x="121" y="136" />
              <mxPoint x="375" y="136" />
            </Array>
          </mxGeometry>
        </mxCell>
        <mxCell id="lfIt66fBGC96BSfinq6W-67" value="有界队列" style="rounded=1;whiteSpace=wrap;html=1;fontFamily=Helvetica;fontSize=12;fontColor=#1A1A1A;fillColor=none;" parent="1" vertex="1">
          <mxGeometry x="77" y="50" width="85" height="30" as="geometry" />
        </mxCell>
        <mxCell id="lfIt66fBGC96BSfinq6W-72" style="edgeStyle=orthogonalEdgeStyle;rounded=0;orthogonalLoop=1;jettySize=auto;html=1;exitX=0.5;exitY=1;exitDx=0;exitDy=0;fontFamily=Helvetica;fontSize=12;fontColor=#1A1A1A;" parent="1" source="lfIt66fBGC96BSfinq6W-73" target="lfIt66fBGC96BSfinq6W-74" edge="1">
          <mxGeometry relative="1" as="geometry" />
        </mxCell>
        <mxCell id="lfIt66fBGC96BSfinq6W-73" value="Trace Span" style="rounded=1;whiteSpace=wrap;html=1;fontFamily=Helvetica;fontSize=12;fontColor=#1A1A1A;fillColor=none;" parent="1" vertex="1">
          <mxGeometry x="246" width="85" height="30" as="geometry" />
        </mxCell>
        <mxCell id="lfIt66fBGC96BSfinq6W-74" value="有界队列" style="rounded=1;whiteSpace=wrap;html=1;fontFamily=Helvetica;fontSize=12;fontColor=#1A1A1A;fillColor=none;" parent="1" vertex="1">
          <mxGeometry x="246" y="50" width="85" height="30" as="geometry" />
        </mxCell>
        <mxCell id="lfIt66fBGC96BSfinq6W-75" style="edgeStyle=orthogonalEdgeStyle;rounded=0;orthogonalLoop=1;jettySize=auto;html=1;exitX=0.5;exitY=1;exitDx=0;exitDy=0;fontFamily=Helvetica;fontSize=12;fontColor=#1A1A1A;" parent="1" source="lfIt66fBGC96BSfinq6W-76" target="lfIt66fBGC96BSfinq6W-77" edge="1">
          <mxGeometry relative="1" as="geometry" />
        </mxCell>
        <mxCell id="lfIt66fBGC96BSfinq6W-76" value="Trace Span" style="rounded=1;whiteSpace=wrap;html=1;fontFamily=Helvetica;fontSize=12;fontColor=#1A1A1A;fillColor=none;" parent="1" vertex="1">
          <mxGeometry x="420" width="85" height="30" as="geometry" />
        </mxCell>
        <mxCell id="lfIt66fBGC96BSfinq6W-82" style="edgeStyle=orthogonalEdgeStyle;rounded=0;orthogonalLoop=1;jettySize=auto;html=1;fontFamily=Helvetica;fontSize=12;fontColor=#1A1A1A;exitX=0.5;exitY=1;exitDx=0;exitDy=0;entryX=0.5;entryY=0;entryDx=0;entryDy=0;" parent="1" source="lfIt66fBGC96BSfinq6W-57" target="Rig4kMZpJOM9v_A4sQsr-1" edge="1">
          <mxGeometry relative="1" as="geometry">
            <mxPoint x="370" y="180.00000000000023" as="targetPoint" />
          </mxGeometry>
        </mxCell>
        <mxCell id="lfIt66fBGC96BSfinq6W-77" value="有界队列" style="rounded=1;whiteSpace=wrap;html=1;fontFamily=Helvetica;fontSize=12;fontColor=#1A1A1A;fillColor=none;" parent="1" vertex="1">
          <mxGeometry x="420" y="50" width="85" height="30" as="geometry" />
        </mxCell>
        <mxCell id="lfIt66fBGC96BSfinq6W-78" style="edgeStyle=orthogonalEdgeStyle;rounded=0;orthogonalLoop=1;jettySize=auto;html=1;exitX=0.5;exitY=1;exitDx=0;exitDy=0;fontFamily=Helvetica;fontSize=12;fontColor=#1A1A1A;" parent="1" source="lfIt66fBGC96BSfinq6W-79" target="lfIt66fBGC96BSfinq6W-80" edge="1">
          <mxGeometry relative="1" as="geometry" />
        </mxCell>
        <mxCell id="lfIt66fBGC96BSfinq6W-79" value="Trace Span" style="rounded=1;whiteSpace=wrap;html=1;fontFamily=Helvetica;fontSize=12;fontColor=#1A1A1A;fillColor=none;" parent="1" vertex="1">
          <mxGeometry x="593" width="85" height="30" as="geometry" />
        </mxCell>
        <mxCell id="lfIt66fBGC96BSfinq6W-80" value="有界队列" style="rounded=1;whiteSpace=wrap;html=1;fontFamily=Helvetica;fontSize=12;fontColor=#1A1A1A;fillColor=none;" parent="1" vertex="1">
          <mxGeometry x="593" y="50" width="85" height="30" as="geometry" />
        </mxCell>
      </root>
    </mxGraphModel>
  </diagram>
  <diagram id="PR9Yo3QBEn2xyQYyr3g4" name="Page-2">
    <mxGraphModel dx="782" dy="436" grid="1" gridSize="10" guides="1" tooltips="1" connect="1" arrows="1" fold="1" page="1" pageScale="1" pageWidth="827" pageHeight="1169" math="0" shadow="0">
      <root>
        <mxCell id="0" />
        <mxCell id="1" parent="0" />
        <mxCell id="83zQx8yVzD2KE2sLZrcP-1" value="" style="rounded=1;whiteSpace=wrap;html=1;dashed=1;" vertex="1" parent="1">
          <mxGeometry x="270" y="100" width="120" height="60" as="geometry" />
        </mxCell>
        <mxCell id="83zQx8yVzD2KE2sLZrcP-2" value="" style="rounded=0;whiteSpace=wrap;html=1;dashed=1;" vertex="1" parent="1">
          <mxGeometry x="270" y="220" width="310" height="130" as="geometry" />
        </mxCell>
        <mxCell id="iSI6udR9wFoBXWdgW4u9-3" style="edgeStyle=orthogonalEdgeStyle;rounded=0;orthogonalLoop=1;jettySize=auto;html=1;entryX=0.5;entryY=0;entryDx=0;entryDy=0;entryPerimeter=0;" edge="1" parent="1" source="83zQx8yVzD2KE2sLZrcP-4" target="83zQx8yVzD2KE2sLZrcP-7">
          <mxGeometry relative="1" as="geometry" />
        </mxCell>
        <mxCell id="83zQx8yVzD2KE2sLZrcP-4" value="&lt;span style=&quot;color: rgb(26 , 26 , 26) ; text-align: left&quot;&gt;MetricsStatistics&lt;/span&gt;&lt;br style=&quot;color: rgb(26 , 26 , 26) ; text-align: left&quot;&gt;&lt;span style=&quot;color: rgb(26 , 26 , 26) ; text-align: left&quot;&gt;Comsumer 2&lt;/span&gt;" style="rounded=1;whiteSpace=wrap;html=1;" vertex="1" parent="1">
          <mxGeometry x="381" y="400" width="90" height="60" as="geometry" />
        </mxCell>
        <mxCell id="iSI6udR9wFoBXWdgW4u9-2" style="edgeStyle=orthogonalEdgeStyle;rounded=0;orthogonalLoop=1;jettySize=auto;html=1;exitX=0.5;exitY=1;exitDx=0;exitDy=0;" edge="1" parent="1" source="83zQx8yVzD2KE2sLZrcP-5" target="83zQx8yVzD2KE2sLZrcP-7">
          <mxGeometry relative="1" as="geometry" />
        </mxCell>
        <mxCell id="83zQx8yVzD2KE2sLZrcP-5" value="&lt;span style=&quot;color: rgb(26 , 26 , 26) ; text-align: left&quot;&gt;MetricsStatistics&lt;br&gt;Comsumer 1&lt;/span&gt;" style="rounded=1;whiteSpace=wrap;html=1;" vertex="1" parent="1">
          <mxGeometry x="274" y="400" width="90" height="60" as="geometry" />
        </mxCell>
        <mxCell id="iSI6udR9wFoBXWdgW4u9-4" style="edgeStyle=orthogonalEdgeStyle;rounded=0;orthogonalLoop=1;jettySize=auto;html=1;exitX=0.5;exitY=1;exitDx=0;exitDy=0;" edge="1" parent="1" source="83zQx8yVzD2KE2sLZrcP-6" target="83zQx8yVzD2KE2sLZrcP-7">
          <mxGeometry relative="1" as="geometry" />
        </mxCell>
        <mxCell id="83zQx8yVzD2KE2sLZrcP-6" value="&lt;span style=&quot;color: rgb(26 , 26 , 26) ; text-align: left&quot;&gt;MetricsStatistics&lt;/span&gt;&lt;br style=&quot;color: rgb(26 , 26 , 26) ; text-align: left&quot;&gt;&lt;span style=&quot;color: rgb(26 , 26 , 26) ; text-align: left&quot;&gt;Comsumer 3&lt;/span&gt;" style="rounded=1;whiteSpace=wrap;html=1;" vertex="1" parent="1">
          <mxGeometry x="486" y="400" width="90" height="60" as="geometry" />
        </mxCell>
        <mxCell id="83zQx8yVzD2KE2sLZrcP-7" value="TsHouse" style="shape=cylinder3;whiteSpace=wrap;html=1;boundedLbl=1;backgroundOutline=1;size=15;" vertex="1" parent="1">
          <mxGeometry x="366" y="518" width="120" height="80" as="geometry" />
        </mxCell>
        <mxCell id="83zQx8yVzD2KE2sLZrcP-8" value="" style="rounded=1;whiteSpace=wrap;html=1;dashed=1;" vertex="1" parent="1">
          <mxGeometry x="460" y="100" width="120" height="60" as="geometry" />
        </mxCell>
        <mxCell id="83zQx8yVzD2KE2sLZrcP-11" value="" style="endArrow=none;dashed=1;html=1;dashPattern=1 3;strokeWidth=2;rounded=0;" edge="1" parent="1">
          <mxGeometry width="50" height="50" relative="1" as="geometry">
            <mxPoint x="400" y="130" as="sourcePoint" />
            <mxPoint x="450" y="130" as="targetPoint" />
          </mxGeometry>
        </mxCell>
        <mxCell id="83zQx8yVzD2KE2sLZrcP-14" value="" style="shape=flexArrow;endArrow=classic;html=1;rounded=0;" edge="1" parent="1">
          <mxGeometry width="50" height="50" relative="1" as="geometry">
            <mxPoint x="329.58" y="170" as="sourcePoint" />
            <mxPoint x="329.58" y="210" as="targetPoint" />
          </mxGeometry>
        </mxCell>
        <mxCell id="83zQx8yVzD2KE2sLZrcP-15" value="" style="shape=flexArrow;endArrow=classic;html=1;rounded=0;" edge="1" parent="1">
          <mxGeometry width="50" height="50" relative="1" as="geometry">
            <mxPoint x="519.66" y="169.99999999999994" as="sourcePoint" />
            <mxPoint x="519.66" y="209.99999999999994" as="targetPoint" />
          </mxGeometry>
        </mxCell>
        <mxCell id="83zQx8yVzD2KE2sLZrcP-16" value="" style="shape=cylinder3;whiteSpace=wrap;html=1;boundedLbl=1;backgroundOutline=1;size=15;" vertex="1" parent="1">
          <mxGeometry x="305" y="245" width="50" height="80" as="geometry" />
        </mxCell>
        <mxCell id="83zQx8yVzD2KE2sLZrcP-17" value="" style="shape=cylinder3;whiteSpace=wrap;html=1;boundedLbl=1;backgroundOutline=1;size=15;" vertex="1" parent="1">
          <mxGeometry x="400" y="245" width="50" height="80" as="geometry" />
        </mxCell>
        <mxCell id="83zQx8yVzD2KE2sLZrcP-18" value="" style="shape=cylinder3;whiteSpace=wrap;html=1;boundedLbl=1;backgroundOutline=1;size=15;" vertex="1" parent="1">
          <mxGeometry x="495" y="245" width="50" height="80" as="geometry" />
        </mxCell>
        <mxCell id="83zQx8yVzD2KE2sLZrcP-19" value="Rocket MQ" style="text;strokeColor=none;fillColor=none;align=left;verticalAlign=middle;spacingLeft=4;spacingRight=4;overflow=hidden;points=[[0,0.5],[1,0.5]];portConstraint=eastwest;rotatable=0;" vertex="1" parent="1">
          <mxGeometry x="190" y="220" width="80" height="30" as="geometry" />
        </mxCell>
        <mxCell id="83zQx8yVzD2KE2sLZrcP-20" value="" style="shape=flexArrow;endArrow=classic;html=1;rounded=0;" edge="1" parent="1">
          <mxGeometry width="50" height="50" relative="1" as="geometry">
            <mxPoint x="424.65999999999985" y="170" as="sourcePoint" />
            <mxPoint x="424.65999999999985" y="210" as="targetPoint" />
          </mxGeometry>
        </mxCell>
        <mxCell id="83zQx8yVzD2KE2sLZrcP-21" value="Queue 1" style="text;strokeColor=none;fillColor=none;align=left;verticalAlign=middle;spacingLeft=4;spacingRight=4;overflow=hidden;points=[[0,0.5],[1,0.5]];portConstraint=eastwest;rotatable=0;" vertex="1" parent="1">
          <mxGeometry x="300" y="220" width="55" height="30" as="geometry" />
        </mxCell>
        <mxCell id="83zQx8yVzD2KE2sLZrcP-22" value="Queue 2" style="text;strokeColor=none;fillColor=none;align=left;verticalAlign=middle;spacingLeft=4;spacingRight=4;overflow=hidden;points=[[0,0.5],[1,0.5]];portConstraint=eastwest;rotatable=0;" vertex="1" parent="1">
          <mxGeometry x="397.5" y="220" width="55" height="30" as="geometry" />
        </mxCell>
        <mxCell id="83zQx8yVzD2KE2sLZrcP-23" value="Queue 3" style="text;strokeColor=none;fillColor=none;align=left;verticalAlign=middle;spacingLeft=4;spacingRight=4;overflow=hidden;points=[[0,0.5],[1,0.5]];portConstraint=eastwest;rotatable=0;" vertex="1" parent="1">
          <mxGeometry x="493.5" y="220" width="55" height="30" as="geometry" />
        </mxCell>
        <mxCell id="83zQx8yVzD2KE2sLZrcP-24" value="TraceCollector 1" style="text;strokeColor=none;fillColor=none;align=left;verticalAlign=middle;spacingLeft=4;spacingRight=4;overflow=hidden;points=[[0,0.5],[1,0.5]];portConstraint=eastwest;rotatable=0;" vertex="1" parent="1">
          <mxGeometry x="280" y="70" width="100" height="30" as="geometry" />
        </mxCell>
        <mxCell id="83zQx8yVzD2KE2sLZrcP-25" value="TraceCollector n" style="text;strokeColor=none;fillColor=none;align=left;verticalAlign=middle;spacingLeft=4;spacingRight=4;overflow=hidden;points=[[0,0.5],[1,0.5]];portConstraint=eastwest;rotatable=0;" vertex="1" parent="1">
          <mxGeometry x="470" y="70" width="100" height="30" as="geometry" />
        </mxCell>
        <mxCell id="Vlk6anzj0d74VSuFROJM-1" value="" style="endArrow=none;dashed=1;html=1;dashPattern=1 3;strokeWidth=2;rounded=0;exitX=0.75;exitY=1;exitDx=0;exitDy=0;" edge="1" parent="1">
          <mxGeometry width="50" height="50" relative="1" as="geometry">
            <mxPoint x="331.9999999999999" y="125" as="sourcePoint" />
            <mxPoint x="332" y="105" as="targetPoint" />
          </mxGeometry>
        </mxCell>
        <mxCell id="Vlk6anzj0d74VSuFROJM-2" value="" style="endArrow=none;dashed=1;html=1;dashPattern=1 3;strokeWidth=2;rounded=0;exitX=0.75;exitY=1;exitDx=0;exitDy=0;" edge="1" parent="1">
          <mxGeometry width="50" height="50" relative="1" as="geometry">
            <mxPoint x="521.9999999999998" y="125.00000000000006" as="sourcePoint" />
            <mxPoint x="522" y="105.00000000000006" as="targetPoint" />
          </mxGeometry>
        </mxCell>
        <mxCell id="Vlk6anzj0d74VSuFROJM-3" value="Metrics Sink" style="rounded=1;whiteSpace=wrap;html=1;" vertex="1" parent="1">
          <mxGeometry x="293" y="131" width="76" height="20" as="geometry" />
        </mxCell>
        <mxCell id="Vlk6anzj0d74VSuFROJM-4" value="Metrics Sink" style="rounded=1;whiteSpace=wrap;html=1;" vertex="1" parent="1">
          <mxGeometry x="482" y="131" width="76" height="20" as="geometry" />
        </mxCell>
        <mxCell id="Vlk6anzj0d74VSuFROJM-5" value="QueueSelect" style="text;strokeColor=none;fillColor=none;align=left;verticalAlign=middle;spacingLeft=4;spacingRight=4;overflow=hidden;points=[[0,0.5],[1,0.5]];portConstraint=eastwest;rotatable=0;" vertex="1" parent="1">
          <mxGeometry x="239" y="170" width="80" height="30" as="geometry" />
        </mxCell>
        <mxCell id="Vlk6anzj0d74VSuFROJM-6" value="AppId 1" style="text;strokeColor=none;fillColor=none;align=left;verticalAlign=middle;spacingLeft=4;spacingRight=4;overflow=hidden;points=[[0,0.5],[1,0.5]];portConstraint=eastwest;rotatable=0;" vertex="1" parent="1">
          <mxGeometry x="304.5" y="270" width="55" height="30" as="geometry" />
        </mxCell>
        <mxCell id="Vlk6anzj0d74VSuFROJM-7" value="AppId 2" style="text;strokeColor=none;fillColor=none;align=left;verticalAlign=middle;spacingLeft=4;spacingRight=4;overflow=hidden;points=[[0,0.5],[1,0.5]];portConstraint=eastwest;rotatable=0;" vertex="1" parent="1">
          <mxGeometry x="399" y="270" width="60" height="30" as="geometry" />
        </mxCell>
        <mxCell id="Vlk6anzj0d74VSuFROJM-8" value="AppId 3" style="text;strokeColor=none;fillColor=none;align=left;verticalAlign=middle;spacingLeft=4;spacingRight=4;overflow=hidden;points=[[0,0.5],[1,0.5]];portConstraint=eastwest;rotatable=0;" vertex="1" parent="1">
          <mxGeometry x="493.5" y="270" width="60" height="30" as="geometry" />
        </mxCell>
        <mxCell id="Vlk6anzj0d74VSuFROJM-9" value="" style="endArrow=none;dashed=1;html=1;dashPattern=1 3;strokeWidth=2;rounded=0;exitX=0.75;exitY=1;exitDx=0;exitDy=0;" edge="1" parent="1">
          <mxGeometry width="50" height="50" relative="1" as="geometry">
            <mxPoint x="329.9999999999998" y="315.00000000000006" as="sourcePoint" />
            <mxPoint x="330" y="295.00000000000006" as="targetPoint" />
          </mxGeometry>
        </mxCell>
        <mxCell id="Vlk6anzj0d74VSuFROJM-10" value="" style="endArrow=none;dashed=1;html=1;dashPattern=1 3;strokeWidth=2;rounded=0;exitX=0.75;exitY=1;exitDx=0;exitDy=0;" edge="1" parent="1">
          <mxGeometry width="50" height="50" relative="1" as="geometry">
            <mxPoint x="425.9999999999998" y="315" as="sourcePoint" />
            <mxPoint x="425.9999999999999" y="295" as="targetPoint" />
          </mxGeometry>
        </mxCell>
        <mxCell id="Vlk6anzj0d74VSuFROJM-11" value="" style="endArrow=none;dashed=1;html=1;dashPattern=1 3;strokeWidth=2;rounded=0;exitX=0.75;exitY=1;exitDx=0;exitDy=0;" edge="1" parent="1">
          <mxGeometry width="50" height="50" relative="1" as="geometry">
            <mxPoint x="520.9999999999998" y="315" as="sourcePoint" />
            <mxPoint x="521" y="295" as="targetPoint" />
          </mxGeometry>
        </mxCell>
        <mxCell id="Vlk6anzj0d74VSuFROJM-12" value="" style="shape=flexArrow;endArrow=classic;html=1;rounded=0;" edge="1" parent="1">
          <mxGeometry width="50" height="50" relative="1" as="geometry">
            <mxPoint x="328.58000000000004" y="357" as="sourcePoint" />
            <mxPoint x="328.58000000000004" y="397" as="targetPoint" />
          </mxGeometry>
        </mxCell>
        <mxCell id="Vlk6anzj0d74VSuFROJM-13" value="" style="shape=flexArrow;endArrow=classic;html=1;rounded=0;" edge="1" parent="1">
          <mxGeometry width="50" height="50" relative="1" as="geometry">
            <mxPoint x="424.58000000000004" y="357" as="sourcePoint" />
            <mxPoint x="424.58000000000004" y="397" as="targetPoint" />
          </mxGeometry>
        </mxCell>
        <mxCell id="Vlk6anzj0d74VSuFROJM-14" value="" style="shape=flexArrow;endArrow=classic;html=1;rounded=0;" edge="1" parent="1">
          <mxGeometry width="50" height="50" relative="1" as="geometry">
            <mxPoint x="520.5799999999999" y="356" as="sourcePoint" />
            <mxPoint x="520.5799999999999" y="396" as="targetPoint" />
          </mxGeometry>
        </mxCell>
      </root>
    </mxGraphModel>
  </diagram>
</mxfile>
